<mxfile host="app.diagrams.net" modified="2023-09-28T18:38:29.019Z" agent="Mozilla/5.0 (Windows NT 10.0; Win64; x64) AppleWebKit/537.36 (KHTML, like Gecko) Chrome/117.0.0.0 Safari/537.36" etag="PZW9pHmvTu7V7BE-2seB" version="21.7.1" type="github">
  <diagram name="Page-1" id="kl2Teg9_16fbkTX1zP-J">
    <mxGraphModel dx="1304" dy="689" grid="0" gridSize="10" guides="1" tooltips="1" connect="1" arrows="1" fold="1" page="1" pageScale="1" pageWidth="1200" pageHeight="1600" math="0" shadow="0">
      <root>
        <mxCell id="0" />
        <mxCell id="1" parent="0" />
        <mxCell id="cactxcea06FRpIvW20v--11" style="edgeStyle=orthogonalEdgeStyle;rounded=0;orthogonalLoop=1;jettySize=auto;html=1;exitX=1;exitY=0.5;exitDx=0;exitDy=0;entryX=0;entryY=0.5;entryDx=0;entryDy=0;" edge="1" parent="1" source="cactxcea06FRpIvW20v--1" target="cactxcea06FRpIvW20v--2">
          <mxGeometry relative="1" as="geometry" />
        </mxCell>
        <mxCell id="cactxcea06FRpIvW20v--1" value="&lt;font style=&quot;font-size: 19px;&quot;&gt;Sending value to register and enable Frame exposure mode&lt;/font&gt;" style="rounded=0;whiteSpace=wrap;html=1;" vertex="1" parent="1">
          <mxGeometry x="221" y="353.5" width="244" height="134.5" as="geometry" />
        </mxCell>
        <mxCell id="cactxcea06FRpIvW20v--12" style="edgeStyle=orthogonalEdgeStyle;rounded=0;orthogonalLoop=1;jettySize=auto;html=1;exitX=1;exitY=0.5;exitDx=0;exitDy=0;entryX=0;entryY=0.5;entryDx=0;entryDy=0;" edge="1" parent="1" source="cactxcea06FRpIvW20v--2" target="cactxcea06FRpIvW20v--5">
          <mxGeometry relative="1" as="geometry" />
        </mxCell>
        <mxCell id="cactxcea06FRpIvW20v--2" value="&lt;font style=&quot;font-size: 20px;&quot;&gt;Sending value to register and switch the red/infrared lights while taking original images&amp;nbsp;&lt;/font&gt;" style="rounded=0;whiteSpace=wrap;html=1;" vertex="1" parent="1">
          <mxGeometry x="542" y="351" width="271" height="138" as="geometry" />
        </mxCell>
        <mxCell id="cactxcea06FRpIvW20v--15" style="edgeStyle=orthogonalEdgeStyle;rounded=0;orthogonalLoop=1;jettySize=auto;html=1;exitX=1;exitY=0.5;exitDx=0;exitDy=0;entryX=0;entryY=0.5;entryDx=0;entryDy=0;" edge="1" parent="1" source="cactxcea06FRpIvW20v--5" target="cactxcea06FRpIvW20v--6">
          <mxGeometry relative="1" as="geometry" />
        </mxCell>
        <mxCell id="cactxcea06FRpIvW20v--5" value="&lt;font style=&quot;font-size: 19px;&quot;&gt;Turn original image to gray format&lt;/font&gt;" style="rounded=0;whiteSpace=wrap;html=1;flipH=1;" vertex="1" parent="1">
          <mxGeometry x="84" y="591" width="190" height="109.5" as="geometry" />
        </mxCell>
        <mxCell id="cactxcea06FRpIvW20v--14" style="edgeStyle=orthogonalEdgeStyle;rounded=0;orthogonalLoop=1;jettySize=auto;html=1;exitX=1;exitY=0.5;exitDx=0;exitDy=0;entryX=0;entryY=0.5;entryDx=0;entryDy=0;" edge="1" parent="1" source="cactxcea06FRpIvW20v--6" target="cactxcea06FRpIvW20v--7">
          <mxGeometry relative="1" as="geometry" />
        </mxCell>
        <mxCell id="cactxcea06FRpIvW20v--6" value="&lt;font style=&quot;font-size: 19px;&quot;&gt;Subtract images: |Red image-Infrared Image|&lt;/font&gt;" style="rounded=0;whiteSpace=wrap;html=1;" vertex="1" parent="1">
          <mxGeometry x="366" y="591" width="195" height="109.5" as="geometry" />
        </mxCell>
        <mxCell id="cactxcea06FRpIvW20v--7" value="&lt;font style=&quot;font-size: 19px;&quot;&gt;Compile these subtract images into a video output&lt;/font&gt;" style="rounded=0;whiteSpace=wrap;html=1;" vertex="1" parent="1">
          <mxGeometry x="680" y="591" width="195" height="109.5" as="geometry" />
        </mxCell>
      </root>
    </mxGraphModel>
  </diagram>
</mxfile>
